# xmcd
#
# Track frame offsets: 
#        150
#        18054
#        37625
#        56559
#        74508
#        85549
#        98563
#        114490
#
# Disc length: 1866 seconds
#
# Revision: 0
# Processed by: cddbd v1.5.2PL0 Copyright (c) Steve Scherf et al.
# Submitted via: ExactAudioCopy v0.99pb4
#
DISCID=50074808
DTITLE=Jermaine Jackson - Frontiers
DYEAR=1978
DGENRE=R&B
TTITLE0=Let It Ride
TTITLE1=The Force
TTITLE2=Take A Trip To My Tomorrow (Let's Encounter For The First Time
TTITLE2=)
TTITLE3=Je Vous Aime Beaucoup (I Love You)
TTITLE4=You Gave Me Something To Believe In
TTITLE5=I Love Every Little Thing About You
TTITLE6=Isn't She Lovely
TTITLE7=Castles Of Sand
EXTD=
EXTT0=
EXTT1=
EXTT2=
EXTT3=
EXTT4=
EXTT5=
EXTT6=
EXTT7=
PLAYORDER=
